<svg width="16" height="16" viewBox="0 0 16 16" fill="none" xmlns="http://www.w3.org/2000/svg">
<path d="M10.6667 8.66652L14.1487 10.9879C14.1989 11.0213 14.2573 11.0404 14.3175 11.0433C14.3777 11.0462 14.4376 11.0327 14.4907 11.0042C14.5439 10.9758 14.5883 10.9334 14.6193 10.8817C14.6503 10.83 14.6667 10.7708 14.6667 10.7105V5.24652C14.6668 5.18787 14.6513 5.13025 14.6219 5.07948C14.5926 5.02872 14.5503 4.9866 14.4995 4.95738C14.4486 4.92817 14.3909 4.91289 14.3323 4.91309C14.2736 4.91329 14.2161 4.92896 14.1654 4.95852L10.6667 6.99985" stroke="#283106" stroke-width="1.33333" stroke-linecap="round" stroke-linejoin="round"/>
<path d="M9.33325 4H2.66659C1.93021 4 1.33325 4.59695 1.33325 5.33333V10.6667C1.33325 11.403 1.93021 12 2.66659 12H9.33325C10.0696 12 10.6666 11.403 10.6666 10.6667V5.33333C10.6666 4.59695 10.0696 4 9.33325 4Z" stroke="#283106" stroke-width="1.33333" stroke-linecap="round" stroke-linejoin="round"/>
</svg>
